<svg width="32" height="32" viewBox="0 0 32 32" fill="none" xmlns="http://www.w3.org/2000/svg">
<g clip-path="url(#clip0_414_15)">
<rect x="1" y="1" width="30" height="30" rx="15" fill="#392249"/>
<path d="M13.3431 17.156C13.3431 14.948 14.8791 13.892 16.1591 12.964C17.1511 12.26 18.0151 11.652 18.0151 10.692C18.0151 9.7 17.2791 8.868 15.5191 8.868C13.9191 8.868 12.5751 9.668 11.5831 10.852L8.99113 7.94C10.6871 5.956 13.2471 4.836 15.9991 4.836C20.1271 4.836 22.6551 6.916 22.6551 9.892C22.6551 12.548 20.9271 13.828 19.4231 14.884C18.3031 15.716 17.3111 16.42 17.3111 17.604C17.3111 18.116 17.5671 18.66 17.8871 18.948L14.3991 19.972C13.7271 19.236 13.3431 18.276 13.3431 17.156ZM13.3431 24.26C13.3431 22.852 14.5271 21.668 15.9351 21.668C17.3431 21.668 18.5271 22.852 18.5271 24.26C18.5271 25.668 17.3431 26.852 15.9351 26.852C14.5271 26.852 13.3431 25.668 13.3431 24.26Z" fill="#FFF5EF"/>
</g>
<rect x="1" y="1" width="30" height="30" rx="15" stroke="#EAB0C1" stroke-width="2"/>
<defs>
<clipPath id="clip0_414_15">
<rect x="1" y="1" width="30" height="30" rx="15" fill="white"/>
</clipPath>
</defs>
</svg>
